<mxfile host="app.diagrams.net" modified="2023-05-19T03:27:14.898Z" agent="Mozilla/5.0 (Windows NT 10.0; Win64; x64) AppleWebKit/537.36 (KHTML, like Gecko) Chrome/113.0.0.0 Safari/537.36" version="21.3.2" etag="95wqe6UhW0p1otaYy9tZ" type="device">
  <diagram id="wHdqnXfZj4eXArT3Xnn0" name="페이지-1">
    <mxGraphModel dx="792" dy="689" grid="1" gridSize="10" guides="1" tooltips="1" connect="1" arrows="1" fold="1" page="1" pageScale="1" pageWidth="4681" pageHeight="3300" math="0" shadow="0">
      <root>
        <mxCell id="0" />
        <mxCell id="1" parent="0" />
        <mxCell id="YReKaeItLF4bdrVWgFR5-1" value="User" style="shape=umlActor;verticalLabelPosition=bottom;verticalAlign=top;html=1;outlineConnect=0;" vertex="1" parent="1">
          <mxGeometry x="120" y="80" width="40" height="60" as="geometry" />
        </mxCell>
        <mxCell id="YReKaeItLF4bdrVWgFR5-4" value="Main" style="rounded=0;whiteSpace=wrap;html=1;strokeColor=#CC0606;strokeWidth=2;" vertex="1" parent="1">
          <mxGeometry x="240" y="80" width="120" height="40" as="geometry" />
        </mxCell>
        <mxCell id="YReKaeItLF4bdrVWgFR5-5" value="RuleService" style="rounded=0;whiteSpace=wrap;html=1;strokeWidth=2;strokeColor=#3333FF;" vertex="1" parent="1">
          <mxGeometry x="440" y="80" width="120" height="40" as="geometry" />
        </mxCell>
        <mxCell id="YReKaeItLF4bdrVWgFR5-6" value="CardService" style="rounded=0;whiteSpace=wrap;html=1;strokeColor=#08FF29;strokeWidth=2;" vertex="1" parent="1">
          <mxGeometry x="640" y="80" width="120" height="40" as="geometry" />
        </mxCell>
        <mxCell id="YReKaeItLF4bdrVWgFR5-7" value="" style="endArrow=none;dashed=1;html=1;rounded=0;" edge="1" parent="1" source="YReKaeItLF4bdrVWgFR5-33">
          <mxGeometry width="50" height="50" relative="1" as="geometry">
            <mxPoint x="140" y="566" as="sourcePoint" />
            <mxPoint x="140" y="160" as="targetPoint" />
          </mxGeometry>
        </mxCell>
        <mxCell id="YReKaeItLF4bdrVWgFR5-10" value="" style="endArrow=none;dashed=1;html=1;rounded=0;strokeColor=#ff0000;" edge="1" parent="1" source="YReKaeItLF4bdrVWgFR5-14">
          <mxGeometry width="50" height="50" relative="1" as="geometry">
            <mxPoint x="299.5" y="566" as="sourcePoint" />
            <mxPoint x="299.5" y="160" as="targetPoint" />
          </mxGeometry>
        </mxCell>
        <mxCell id="YReKaeItLF4bdrVWgFR5-11" value="" style="endArrow=none;dashed=1;html=1;rounded=0;strokeColor=#243dff;" edge="1" parent="1">
          <mxGeometry width="50" height="50" relative="1" as="geometry">
            <mxPoint x="500" y="640" as="sourcePoint" />
            <mxPoint x="499.5" y="160" as="targetPoint" />
          </mxGeometry>
        </mxCell>
        <mxCell id="YReKaeItLF4bdrVWgFR5-12" value="" style="endArrow=none;dashed=1;html=1;rounded=0;strokeColor=#00FF1A;" edge="1" parent="1">
          <mxGeometry width="50" height="50" relative="1" as="geometry">
            <mxPoint x="700" y="640" as="sourcePoint" />
            <mxPoint x="699.5" y="160" as="targetPoint" />
          </mxGeometry>
        </mxCell>
        <mxCell id="YReKaeItLF4bdrVWgFR5-13" value="" style="endArrow=classic;html=1;rounded=0;" edge="1" parent="1">
          <mxGeometry width="50" height="50" relative="1" as="geometry">
            <mxPoint x="300" y="205.5" as="sourcePoint" />
            <mxPoint x="500" y="205.5" as="targetPoint" />
          </mxGeometry>
        </mxCell>
        <mxCell id="YReKaeItLF4bdrVWgFR5-15" value="" style="endArrow=none;dashed=1;html=1;rounded=0;strokeColor=#ff0000;" edge="1" parent="1" target="YReKaeItLF4bdrVWgFR5-14">
          <mxGeometry width="50" height="50" relative="1" as="geometry">
            <mxPoint x="300" y="640" as="sourcePoint" />
            <mxPoint x="299.5" y="160" as="targetPoint" />
          </mxGeometry>
        </mxCell>
        <mxCell id="YReKaeItLF4bdrVWgFR5-16" value="Game Start" style="text;html=1;strokeColor=none;fillColor=none;align=center;verticalAlign=middle;whiteSpace=wrap;rounded=0;" vertex="1" parent="1">
          <mxGeometry x="360" y="181" width="80" height="30" as="geometry" />
        </mxCell>
        <mxCell id="YReKaeItLF4bdrVWgFR5-17" value="" style="endArrow=classic;html=1;rounded=0;" edge="1" parent="1">
          <mxGeometry width="50" height="50" relative="1" as="geometry">
            <mxPoint x="500" y="234.5" as="sourcePoint" />
            <mxPoint x="700" y="234.5" as="targetPoint" />
          </mxGeometry>
        </mxCell>
        <mxCell id="YReKaeItLF4bdrVWgFR5-18" value="" style="rounded=0;whiteSpace=wrap;html=1;fillColor=#dae8fc;strokeColor=#6c8ebf;" vertex="1" parent="1">
          <mxGeometry x="485" y="220" width="30" height="30" as="geometry" />
        </mxCell>
        <mxCell id="YReKaeItLF4bdrVWgFR5-19" value="Create Card" style="text;html=1;strokeColor=none;fillColor=none;align=center;verticalAlign=middle;whiteSpace=wrap;rounded=0;" vertex="1" parent="1">
          <mxGeometry x="560" y="210" width="80" height="30" as="geometry" />
        </mxCell>
        <mxCell id="YReKaeItLF4bdrVWgFR5-25" value="" style="endArrow=classic;html=1;rounded=0;" edge="1" parent="1">
          <mxGeometry width="50" height="50" relative="1" as="geometry">
            <mxPoint x="500" y="305" as="sourcePoint" />
            <mxPoint x="700" y="305" as="targetPoint" />
          </mxGeometry>
        </mxCell>
        <mxCell id="YReKaeItLF4bdrVWgFR5-27" value="Add Card" style="text;html=1;strokeColor=none;fillColor=none;align=center;verticalAlign=middle;whiteSpace=wrap;rounded=0;" vertex="1" parent="1">
          <mxGeometry x="560" y="275" width="80" height="30" as="geometry" />
        </mxCell>
        <mxCell id="YReKaeItLF4bdrVWgFR5-28" value="" style="endArrow=classic;html=1;rounded=0;" edge="1" parent="1">
          <mxGeometry width="50" height="50" relative="1" as="geometry">
            <mxPoint x="500" y="329.5" as="sourcePoint" />
            <mxPoint x="700" y="329.5" as="targetPoint" />
          </mxGeometry>
        </mxCell>
        <mxCell id="YReKaeItLF4bdrVWgFR5-30" value="Score" style="text;html=1;strokeColor=none;fillColor=none;align=center;verticalAlign=middle;whiteSpace=wrap;rounded=0;" vertex="1" parent="1">
          <mxGeometry x="560" y="305" width="80" height="30" as="geometry" />
        </mxCell>
        <mxCell id="YReKaeItLF4bdrVWgFR5-31" value="" style="endArrow=classic;html=1;rounded=0;" edge="1" parent="1">
          <mxGeometry width="50" height="50" relative="1" as="geometry">
            <mxPoint x="140" y="350" as="sourcePoint" />
            <mxPoint x="480" y="350" as="targetPoint" />
          </mxGeometry>
        </mxCell>
        <mxCell id="YReKaeItLF4bdrVWgFR5-34" value="" style="endArrow=none;dashed=1;html=1;rounded=0;" edge="1" parent="1" source="YReKaeItLF4bdrVWgFR5-54" target="YReKaeItLF4bdrVWgFR5-33">
          <mxGeometry width="50" height="50" relative="1" as="geometry">
            <mxPoint x="140" y="640" as="sourcePoint" />
            <mxPoint x="140" y="160" as="targetPoint" />
          </mxGeometry>
        </mxCell>
        <mxCell id="YReKaeItLF4bdrVWgFR5-33" value="" style="rounded=0;whiteSpace=wrap;html=1;fillColor=#f5f5f5;fontColor=#333333;strokeColor=#666666;" vertex="1" parent="1">
          <mxGeometry x="125" y="334" width="30" height="30" as="geometry" />
        </mxCell>
        <mxCell id="YReKaeItLF4bdrVWgFR5-35" value="Drow(Y/N)" style="text;html=1;strokeColor=none;fillColor=none;align=center;verticalAlign=middle;whiteSpace=wrap;rounded=0;" vertex="1" parent="1">
          <mxGeometry x="180" y="325" width="80" height="30" as="geometry" />
        </mxCell>
        <mxCell id="YReKaeItLF4bdrVWgFR5-36" value="" style="endArrow=classic;html=1;rounded=0;fillColor=#dae8fc;strokeColor=#6c8ebf;" edge="1" parent="1">
          <mxGeometry width="50" height="50" relative="1" as="geometry">
            <mxPoint x="491" y="370" as="sourcePoint" />
            <mxPoint x="481" y="280" as="targetPoint" />
            <Array as="points">
              <mxPoint x="441" y="370" />
              <mxPoint x="441" y="280" />
            </Array>
          </mxGeometry>
        </mxCell>
        <mxCell id="YReKaeItLF4bdrVWgFR5-37" value="Y" style="text;html=1;strokeColor=none;fillColor=none;align=center;verticalAlign=middle;whiteSpace=wrap;rounded=0;" vertex="1" parent="1">
          <mxGeometry x="424" y="365" width="80" height="30" as="geometry" />
        </mxCell>
        <mxCell id="YReKaeItLF4bdrVWgFR5-39" value="" style="endArrow=classic;html=1;rounded=0;" edge="1" parent="1" source="YReKaeItLF4bdrVWgFR5-41">
          <mxGeometry width="50" height="50" relative="1" as="geometry">
            <mxPoint x="500" y="444.5" as="sourcePoint" />
            <mxPoint x="700" y="444.5" as="targetPoint" />
          </mxGeometry>
        </mxCell>
        <mxCell id="YReKaeItLF4bdrVWgFR5-40" value="Score" style="text;html=1;strokeColor=none;fillColor=none;align=center;verticalAlign=middle;whiteSpace=wrap;rounded=0;" vertex="1" parent="1">
          <mxGeometry x="560" y="420" width="80" height="30" as="geometry" />
        </mxCell>
        <mxCell id="YReKaeItLF4bdrVWgFR5-42" value="" style="endArrow=classic;html=1;rounded=0;" edge="1" parent="1" target="YReKaeItLF4bdrVWgFR5-41">
          <mxGeometry width="50" height="50" relative="1" as="geometry">
            <mxPoint x="500" y="444.5" as="sourcePoint" />
            <mxPoint x="700" y="444.5" as="targetPoint" />
          </mxGeometry>
        </mxCell>
        <mxCell id="YReKaeItLF4bdrVWgFR5-41" value="" style="rounded=0;whiteSpace=wrap;html=1;fillColor=#dae8fc;strokeColor=#6c8ebf;" vertex="1" parent="1">
          <mxGeometry x="485" y="430" width="30" height="30" as="geometry" />
        </mxCell>
        <mxCell id="YReKaeItLF4bdrVWgFR5-43" value="" style="endArrow=classic;html=1;rounded=0;" edge="1" parent="1">
          <mxGeometry width="50" height="50" relative="1" as="geometry">
            <mxPoint x="703" y="544" as="sourcePoint" />
            <mxPoint x="143" y="544" as="targetPoint" />
          </mxGeometry>
        </mxCell>
        <mxCell id="YReKaeItLF4bdrVWgFR5-44" value="Print Card" style="text;html=1;strokeColor=none;fillColor=none;align=center;verticalAlign=middle;whiteSpace=wrap;rounded=0;" vertex="1" parent="1">
          <mxGeometry x="560" y="519" width="80" height="30" as="geometry" />
        </mxCell>
        <mxCell id="YReKaeItLF4bdrVWgFR5-46" value="" style="endArrow=classic;html=1;rounded=0;" edge="1" parent="1" source="YReKaeItLF4bdrVWgFR5-48">
          <mxGeometry width="50" height="50" relative="1" as="geometry">
            <mxPoint x="500" y="490.5" as="sourcePoint" />
            <mxPoint x="700" y="490.5" as="targetPoint" />
          </mxGeometry>
        </mxCell>
        <mxCell id="YReKaeItLF4bdrVWgFR5-48" value="" style="rounded=0;whiteSpace=wrap;html=1;fillColor=#dae8fc;strokeColor=#6c8ebf;" vertex="1" parent="1">
          <mxGeometry x="485" y="476" width="30" height="30" as="geometry" />
        </mxCell>
        <mxCell id="YReKaeItLF4bdrVWgFR5-49" value="Print Card" style="text;html=1;strokeColor=none;fillColor=none;align=center;verticalAlign=middle;whiteSpace=wrap;rounded=0;" vertex="1" parent="1">
          <mxGeometry x="560" y="470" width="80" height="30" as="geometry" />
        </mxCell>
        <mxCell id="YReKaeItLF4bdrVWgFR5-50" value="" style="endArrow=none;dashed=1;html=1;rounded=0;strokeColor=#00FF1A;" edge="1" parent="1" target="YReKaeItLF4bdrVWgFR5-45">
          <mxGeometry width="50" height="50" relative="1" as="geometry">
            <mxPoint x="699.5" y="566" as="sourcePoint" />
            <mxPoint x="699.5" y="160" as="targetPoint" />
          </mxGeometry>
        </mxCell>
        <mxCell id="YReKaeItLF4bdrVWgFR5-45" value="" style="rounded=0;whiteSpace=wrap;html=1;fillColor=#d5e8d4;strokeColor=#82b366;" vertex="1" parent="1">
          <mxGeometry x="685" y="530" width="30" height="30" as="geometry" />
        </mxCell>
        <mxCell id="YReKaeItLF4bdrVWgFR5-26" value="" style="rounded=0;whiteSpace=wrap;html=1;fillColor=#dae8fc;strokeColor=#6c8ebf;" vertex="1" parent="1">
          <mxGeometry x="485" y="267" width="30" height="113" as="geometry" />
        </mxCell>
        <mxCell id="YReKaeItLF4bdrVWgFR5-52" value="" style="endArrow=classic;html=1;rounded=0;" edge="1" parent="1">
          <mxGeometry width="50" height="50" relative="1" as="geometry">
            <mxPoint x="150" y="600" as="sourcePoint" />
            <mxPoint x="275" y="600" as="targetPoint" />
          </mxGeometry>
        </mxCell>
        <mxCell id="YReKaeItLF4bdrVWgFR5-53" value="New Game(Y/N)" style="text;html=1;strokeColor=none;fillColor=none;align=center;verticalAlign=middle;whiteSpace=wrap;rounded=0;" vertex="1" parent="1">
          <mxGeometry x="165" y="570" width="110" height="30" as="geometry" />
        </mxCell>
        <mxCell id="YReKaeItLF4bdrVWgFR5-55" value="" style="endArrow=none;dashed=1;html=1;rounded=0;" edge="1" parent="1" target="YReKaeItLF4bdrVWgFR5-54">
          <mxGeometry width="50" height="50" relative="1" as="geometry">
            <mxPoint x="140" y="640" as="sourcePoint" />
            <mxPoint x="140" y="364" as="targetPoint" />
          </mxGeometry>
        </mxCell>
        <mxCell id="YReKaeItLF4bdrVWgFR5-54" value="" style="rounded=0;whiteSpace=wrap;html=1;fillColor=#f5f5f5;fontColor=#333333;strokeColor=#666666;" vertex="1" parent="1">
          <mxGeometry x="125" y="580" width="30" height="30" as="geometry" />
        </mxCell>
        <mxCell id="YReKaeItLF4bdrVWgFR5-56" value="" style="endArrow=classic;html=1;rounded=0;fillColor=#f8cecc;strokeColor=#b85450;" edge="1" parent="1">
          <mxGeometry width="50" height="50" relative="1" as="geometry">
            <mxPoint x="310" y="610" as="sourcePoint" />
            <mxPoint x="280" y="190" as="targetPoint" />
            <Array as="points">
              <mxPoint x="240" y="610" />
              <mxPoint x="240" y="190" />
            </Array>
          </mxGeometry>
        </mxCell>
        <mxCell id="YReKaeItLF4bdrVWgFR5-14" value="" style="rounded=0;whiteSpace=wrap;html=1;fillColor=#f8cecc;strokeColor=#b85450;" vertex="1" parent="1">
          <mxGeometry x="285" y="180" width="30" height="440" as="geometry" />
        </mxCell>
        <mxCell id="YReKaeItLF4bdrVWgFR5-57" value="Y" style="text;html=1;strokeColor=none;fillColor=none;align=center;verticalAlign=middle;whiteSpace=wrap;rounded=0;" vertex="1" parent="1">
          <mxGeometry x="221" y="604" width="80" height="30" as="geometry" />
        </mxCell>
      </root>
    </mxGraphModel>
  </diagram>
</mxfile>
